<svg xmlns="http://www.w3.org/2000/svg" xmlns:xlink="http://www.w3.org/1999/xlink" width="342.362" height="219" viewBox="0 0 342.362 219"><defs><style>.a,.b{opacity:0.555;}.a{fill:url(#a);}.b{fill:#cfd3f1;}.c{fill:#7c828a;}.c,.g{font-size:12px;font-family:NunitoSans-Regular, Nunito Sans;}.d{fill:#147ad6;}.e{fill:#fff;}.f{font-size:16px;font-family:NunitoSans-Bold, Nunito Sans;font-weight:700;}.h{filter:url(#f);}</style><linearGradient id="a" x1="0.5" x2="0.5" y2="0.998" gradientUnits="objectBoundingBox"><stop offset="0" stop-color="#f5f6fa"/><stop offset="1" stop-color="#e1e4fc"/></linearGradient><filter id="f" x="64.057" y="0" width="200.258" height="60" filterUnits="userSpaceOnUse"><feOffset dy="1" input="SourceAlpha"/><feGaussianBlur stdDeviation="4" result="g"/><feFlood flood-color="#53559b" flood-opacity="0.176"/><feComposite operator="in" in2="g"/><feComposite in="SourceGraphic"/></filter></defs><g transform="translate(0 11)"><g transform="translate(38.632 9)"><rect class="a" width="48.29" height="170" rx="4" transform="translate(254.73)"/><rect class="a" width="48.29" height="170" rx="4" transform="translate(204.025)"/><rect class="a" width="48.29" height="170" rx="4" transform="translate(152.113)"/><rect class="b" width="48.29" height="170" rx="4" transform="translate(101.409)"/><rect class="a" width="48.29" height="170" rx="4" transform="translate(50.704)"/><rect class="a" width="48.29" height="170" rx="4"/></g><g transform="translate(0 18)"><g transform="translate(0 0)"><text class="c" transform="translate(0 150.34)"><tspan x="22.981" y="12">0</tspan></text><text class="c" transform="translate(0 75.17)"><tspan x="8.581" y="12">250</tspan></text><text class="c"><tspan x="8.581" y="12">500</tspan></text></g><g transform="translate(38.632 174)"><text class="c" transform="translate(254.73)"><tspan x="13.411" y="12">JUN</tspan></text><text class="c" transform="translate(204.025)"><tspan x="11.599" y="12">MAY</tspan></text><text class="c" transform="translate(152.113)"><tspan x="11.797" y="12">APR</tspan></text><text class="c" transform="translate(101.409)"><tspan x="10.621" y="12">MAR</tspan></text><text class="c" transform="translate(50.704)"><tspan x="13.267" y="12">FEB</tspan></text><text class="c"><tspan x="13.393" y="12">JAN</tspan></text></g><g transform="translate(38.213 21.5)"><path class="d" d="M102.021,0A28.4,28.4,0,0,1,117.4,4.128c2.976,1.821,5.095,3.632,8.882,7.432l2.631,2.666c3.959,3.992,6.07,5.819,9.038,7.636a26.826,26.826,0,0,0,14.07,3.928l.59,0c5.778,0,10.423,4.285,14.6,12.522l.51,1.029c2.653,5.459,4.707,11.289,8.075,22.441l3.05,10.23c3.736,12.44,5.916,18.654,8.829,24.527l.146.293c4.244,8.471,8.9,12.79,14.446,12.79a22.7,22.7,0,0,0,14.6-5l.457-.362c2.929-2.359,5.121-4.88,9.391-10.416l1.63-2.109c3.913-5.019,6.049-7.364,9.073-9.724a24.043,24.043,0,0,1,15.432-5.275c11.3,0,23.279,7.087,35.242,18.879a139.767,139.767,0,0,1,11.5,12.905c1.063,1.347,2.022,2.61,2.868,3.765l.546.752.955,1.356-1.053.489-.286-.414c-.238-.34-.519-.735-.841-1.18l-.719-.982c-.747-1.008-1.575-2.093-2.479-3.239a138.746,138.746,0,0,0-11.418-12.809c-11.751-11.584-23.482-18.523-34.317-18.523a22.7,22.7,0,0,0-14.6,5l-.681.544c-2.671,2.187-4.775,4.574-8.526,9.406l-2.271,2.937c-3.913,5.019-6.049,7.364-9.073,9.724a24.043,24.043,0,0,1-15.432,5.275c-6.09,0-10.977-4.44-15.333-12.955l-.523-1.045c-2.819-5.744-4.973-11.871-8.548-23.739L174.8,62.642c-3.525-11.706-5.607-17.626-8.35-23.213l-.142-.289C162.323,31.1,158,26.944,152.889,26.8l-.279,0a28.4,28.4,0,0,1-15.377-4.128l-.549-.342c-2.789-1.771-4.921-3.649-8.694-7.452l-2.271-2.3c-3.959-3.992-6.07-5.819-9.038-7.636A27.02,27.02,0,0,0,102.021,1C96.518,1,91.968,3.712,87.8,9.043l-.284.368C84.25,13.694,82.019,18,77.292,28.338l-1.217,2.647c-3.874,8.368-6,12.331-8.936,16.226l-.177.234c-4.447,5.836-9.413,8.877-15.529,8.877q-25.222,0-50.761-20.108L0,35.683l.837-.721q25.564,20.376,50.6,20.36c5.628,0,10.26-2.837,14.508-8.411l.516-.689c2.6-3.534,4.627-7.3,8.043-14.632l3.336-7.236c3.663-7.862,5.748-11.661,8.656-15.477C90.94,3.041,95.906,0,102.021,0Z" transform="translate(0)"/><circle class="d" cx="4" cy="4" r="4" transform="translate(121.826 7.5)"/></g></g><g transform="translate(76.057)"><g class="h" transform="matrix(1, 0, 0, 1, -76.06, -11)"><rect class="e" width="176.258" height="36" rx="4" transform="translate(76.06 11)"/></g><text class="f" transform="translate(18.943 7.5)"><tspan x="0" y="16">489</tspan></text><text class="g" transform="translate(60.362 12)"><tspan x="0" y="12">additional text </tspan></text></g></g></svg>